<svg width="50" height="30" viewBox="0 0 50 30" fill="none" xmlns="http://www.w3.org/2000/svg">
<path d="M22.2334 24.1115H1.50908C0.675586 24.1115 0 23.436 0 22.6026V12.565C0 11.9196 0.410449 11.3456 1.02119 11.1369L6.03623 9.42346L8.89912 2.26633C9.35742 1.12053 10.4673 0.369164 11.7014 0.369164H22.2334V24.1115Z" fill="#FAF7F7"/>
<path d="M0 20.4392V22.6016C0 23.435 0.675586 24.1106 1.50908 24.1106H22.2334V20.4392H0Z" fill="#EFE2DD"/>
<path d="M9.30812 9.77783L11.6034 3.64756C11.6623 3.49043 11.8125 3.38623 11.9803 3.38623H18.8128C19.0351 3.38623 19.2153 3.56641 19.2153 3.78867V9.91895C19.2153 10.1412 19.0351 10.3214 18.8128 10.3214H9.68498C9.40412 10.3214 9.20968 10.0409 9.30812 9.77783Z" fill="#B3DAFE"/>
<path d="M50 21.0935V3.38723C50 1.72033 48.6487 0.369164 46.9819 0.369164H22.2334V24.1116H46.9819C48.6487 24.1115 50 22.7603 50 21.0935Z" fill="#CBC4CC"/>
<path d="M46.982 0.368164H43.9638C45.6307 0.368164 46.982 1.71943 46.982 3.38623V21.0925C46.982 22.7593 45.6307 24.1105 43.9638 24.1105H46.982C48.6488 24.1105 50 22.7593 50 21.0925V3.38633C50 1.71943 48.6488 0.368164 46.982 0.368164Z" fill="#BAAFB9"/>
<path d="M50 21.0926V20.4392H22.2334V24.1106H46.9819C48.6487 24.1106 50 22.7594 50 21.0926Z" fill="#EFE2DD"/>
<path d="M46.982 21.0926C46.982 22.7594 45.6307 24.1106 43.9638 24.1106H46.982C48.6488 24.1106 50 22.7594 50 21.0926V20.4392H46.982V21.0926Z" fill="#E1D3CE"/>
<path d="M14.6683 26.1555C16.6324 24.1914 16.6324 21.0069 14.6683 19.0428C12.7042 17.0787 9.51971 17.0787 7.5556 19.0428C5.59149 21.0069 5.59149 24.1914 7.5556 26.1555C9.51971 28.1196 12.7042 28.1196 14.6683 26.1555Z" fill="#918291"/>
<path d="M42.6358 24.8797C43.8943 22.4044 42.9079 19.3776 40.4326 18.1191C37.9573 16.8606 34.9305 17.847 33.672 20.3223C32.4136 22.7976 33.4 25.8244 35.8753 27.0829C38.3505 28.3413 41.3773 27.3549 42.6358 24.8797Z" fill="#918291"/>
<path d="M3.01807 16.2636H0V13.3461H3.01807C3.57363 13.3461 4.02412 13.7965 4.02412 14.3521V15.2576C4.02412 15.8132 3.57373 16.2636 3.01807 16.2636Z" fill="#F58A97"/>
<path d="M11.7342 23.0506C11.9734 22.7093 11.8907 22.2387 11.5494 21.9996C11.2081 21.7604 10.7376 21.8431 10.4984 22.1844C10.2592 22.5257 10.342 22.9962 10.6832 23.2354C11.0245 23.4746 11.4951 23.3918 11.7342 23.0506Z" fill="#A79BA7"/>
<path d="M38.7048 23.1355C38.9994 22.8409 38.9994 22.3632 38.7048 22.0686C38.4102 21.774 37.9326 21.774 37.638 22.0686C37.3434 22.3632 37.3434 22.8409 37.638 23.1355C37.9326 23.4301 38.4102 23.4301 38.7048 23.1355Z" fill="#A79BA7"/>
<path d="M43.7048 11.9307L36.8712 8.76797V8.0749C37.8802 7.72529 38.5242 6.70644 38.4062 5.63847C38.2893 4.57881 37.4353 3.7249 36.3759 3.60791C35.7213 3.53633 35.0671 3.74453 34.5799 4.18095C34.0923 4.61767 33.8127 5.24326 33.8127 5.89746C33.8127 6.31426 34.1505 6.65195 34.5672 6.65195C34.9839 6.65195 35.3217 6.31416 35.3217 5.89746C35.3217 5.66845 35.4158 5.45801 35.5866 5.30508C35.7571 5.15234 35.9786 5.08183 36.2102 5.10791C36.5676 5.14726 36.8667 5.44658 36.9061 5.804C36.9483 6.18506 36.726 6.53418 36.3657 6.65283C35.7654 6.85039 35.362 7.4168 35.362 8.06221V8.76797L28.5285 11.9307C28.0186 12.1666 27.7468 12.7147 27.8675 13.2636C27.9883 13.8124 28.4652 14.1956 29.0271 14.1956H43.206C43.768 14.1956 44.2449 13.8124 44.3657 13.2636C44.4864 12.7147 44.2147 12.1666 43.7048 11.9307ZM30.4883 12.6865L36.1167 10.0816L41.7451 12.6865H30.4883Z" fill="white"/>
<path d="M19.2154 14.094H16.6018C16.185 14.094 15.8473 13.7563 15.8473 13.3396C15.8473 12.9228 16.1851 12.5851 16.6018 12.5851H19.2154C19.6322 12.5851 19.9698 12.9229 19.9698 13.3396C19.9698 13.7563 19.6321 14.094 19.2154 14.094Z" fill="#EFE2DD"/>
</svg>
