<svg width="126" height="56" viewBox="0 0 126 56" fill="none" xmlns="http://www.w3.org/2000/svg">
<path d="M28.125 13.5938H34.375V15.1563H28.125C27.9178 15.1563 27.7191 15.0739 27.5726 14.9274C27.4261 14.7809 27.3438 14.5822 27.3438 14.375C27.3438 14.1678 27.4261 13.9691 27.5726 13.8226C27.7191 13.6761 27.9178 13.5938 28.125 13.5938Z" fill="black"/>
<path d="M7.03125 21.4062H28.9062V40.1562H7.03125V21.4062Z" fill="#B38B63"/>
<path d="M27.3437 21.4062V32.3438C27.3437 33.587 26.8499 34.7792 25.9708 35.6583C25.0917 36.5374 23.8995 37.0312 22.6562 37.0312H7.03125V40.1562H28.9062V21.4062H27.3437Z" fill="#A97C50"/>
<path d="M33.5938 15.1562V19.8437C33.5938 21.087 34.0876 22.2792 34.9667 23.1583C35.8458 24.0374 37.038 24.5312 38.2812 24.5312V27.6562H42.9688V24.5312C43.4383 24.2965 43.8331 23.9356 44.1091 23.4891C44.3851 23.0426 44.5312 22.528 44.5312 22.0031V15.1562H33.5938Z" fill="#FFBCAB"/>
<path d="M42.9688 27.6562H36.7188C35.4755 27.6562 34.2833 28.1501 33.4042 29.0292C32.5251 29.9083 32.0313 31.1005 32.0312 32.3438V49.5312H47.6562V32.3438C47.6562 31.1005 47.1624 29.9083 46.2833 29.0292C45.4042 28.1501 44.212 27.6562 42.9688 27.6562Z" fill="#101010"/>
<path d="M42.9687 38.5938V33.9062C42.9687 33.0774 42.6395 32.2826 42.0535 31.6965C41.4674 31.1105 40.6725 30.7812 39.8437 30.7812C39.0149 30.7812 38.2201 31.1105 37.634 31.6965C37.048 32.2826 36.7187 33.0774 36.7187 33.9062V37.0312C36.7187 37.4457 36.5541 37.8431 36.2611 38.1361C35.9681 38.4291 35.5706 38.5938 35.1562 38.5938H25.7812V44.8438H36.7187C38.3764 44.8438 39.9661 44.1853 41.1382 43.0132C42.3103 41.8411 42.9687 40.2514 42.9687 38.5938Z" fill="#55CB95"/>
<path d="M25.7813 37.8125H21.0938V40.1562V43.2812V45.625H25.7813V44.8438V38.5938V37.8125Z" fill="black"/>
<path d="M45.3125 15.1563V13.5938C45.3125 11.9361 44.654 10.3464 43.4819 9.17433C42.3098 8.00223 40.7201 7.34375 39.0625 7.34375C37.4049 7.34375 35.8152 8.00223 34.6431 9.17433C33.471 10.3464 32.8125 11.9361 32.8125 13.5938V15.1563H45.3125Z" fill="black"/>
<path d="M17.9688 27.6562L20.3125 29.2188V21.4062H15.625V29.2188L17.9688 27.6562Z" fill="#55CB95"/>
<path d="M14.8438 40.1562C14.8438 40.9851 15.173 41.7799 15.759 42.366C16.3451 42.952 17.1399 43.2812 17.9687 43.2812H21.0937V40.1562H14.8438Z" fill="#FFBCAB"/>
<path d="M32.0312 49.5312H47.6562V52.6562H32.0312V49.5312Z" fill="#6D6E71"/>
<path d="M66.2461 31.312H60.3061L58.8301 37H54.3301L61.6381 11.62H65.2021L72.5461 37H67.7941L66.2461 31.312ZM61.2781 27.568H65.4541L64.0141 21.7L63.4381 17.74H63.2941L62.6821 21.736L61.2781 27.568ZM82.9493 37V26.056C82.9493 24.736 82.7933 23.812 82.4813 23.284C82.1693 22.756 81.6413 22.492 80.8973 22.492C80.2733 22.492 79.7333 22.684 79.2773 23.068C78.8213 23.452 78.4973 23.932 78.3053 24.508V37H74.0213V19H77.4413L77.9453 21.088H78.0533C78.4853 20.392 79.0733 19.804 79.8173 19.324C80.5613 18.82 81.5333 18.568 82.7333 18.568C83.4533 18.568 84.0893 18.676 84.6413 18.892C85.2173 19.108 85.6973 19.468 86.0813 19.972C86.4653 20.452 86.7533 21.112 86.9453 21.952C87.1373 22.768 87.2333 23.788 87.2333 25.012V37H82.9493ZM88.7891 19H90.7691V15.616L95.0531 14.284V19H98.5451V22.816H95.0531V30.664C95.0531 31.696 95.1491 32.428 95.3411 32.86C95.5571 33.292 95.9291 33.508 96.4571 33.508C96.8171 33.508 97.1411 33.472 97.4291 33.4C97.7171 33.328 98.0291 33.22 98.3651 33.076L98.9051 36.496C98.3771 36.76 97.7651 36.976 97.0691 37.144C96.3731 37.336 95.6411 37.432 94.8731 37.432C93.5051 37.432 92.4731 37.036 91.7771 36.244C91.1051 35.452 90.7691 34.12 90.7691 32.248V22.816H88.7891V19ZM100.706 20.08C101.426 19.648 102.326 19.3 103.406 19.036C104.486 18.772 105.71 18.64 107.078 18.64C109.118 18.64 110.534 19.168 111.326 20.224C112.142 21.28 112.55 22.78 112.55 24.724C112.55 25.852 112.514 26.968 112.442 28.072C112.394 29.152 112.358 30.22 112.334 31.276C112.31 32.308 112.322 33.316 112.37 34.3C112.442 35.26 112.61 36.172 112.874 37.036H109.382L108.698 34.84H108.554C108.17 35.536 107.63 36.112 106.934 36.568C106.238 37.024 105.362 37.252 104.306 37.252C102.89 37.252 101.774 36.784 100.958 35.848C100.142 34.888 99.7337 33.616 99.7337 32.032C99.7337 29.872 100.502 28.336 102.038 27.424C103.574 26.512 105.65 26.128 108.266 26.272C108.386 24.88 108.29 23.872 107.978 23.248C107.69 22.624 107.054 22.312 106.07 22.312C105.35 22.312 104.606 22.396 103.838 22.564C103.07 22.732 102.386 22.972 101.786 23.284L100.706 20.08ZM105.854 33.58C106.502 33.58 107.03 33.424 107.438 33.112C107.846 32.776 108.146 32.416 108.338 32.032V29.044C107.786 28.972 107.258 28.96 106.754 29.008C106.25 29.056 105.806 29.164 105.422 29.332C105.038 29.5 104.726 29.752 104.486 30.088C104.27 30.4 104.162 30.808 104.162 31.312C104.162 32.056 104.306 32.62 104.594 33.004C104.906 33.388 105.326 33.58 105.854 33.58ZM124.037 23.248C123.461 23.032 122.933 22.924 122.453 22.924C121.805 22.924 121.241 23.104 120.761 23.464C120.305 23.824 119.993 24.328 119.825 24.976V37H115.541V19H118.817L119.321 21.16H119.465C119.777 20.368 120.221 19.756 120.797 19.324C121.397 18.868 122.081 18.64 122.849 18.64C123.425 18.64 123.989 18.76 124.541 19L124.037 23.248Z" fill="black"/>
<path d="M59.1081 51.2762H55.3081V44.3262H55.9281V50.7162H59.1081V51.2762ZM63.4328 47.7662V50.4462C63.4595 50.6929 63.6761 50.8395 64.0828 50.8862L64.0528 51.3662C63.5395 51.3662 63.1628 51.2329 62.9228 50.9662C62.2961 51.2395 61.6695 51.3762 61.0428 51.3762C60.5961 51.3762 60.2561 51.2495 60.0228 50.9962C59.7895 50.7362 59.6728 50.3695 59.6728 49.8962C59.6728 49.4162 59.7895 49.0629 60.0228 48.8362C60.2628 48.6029 60.6361 48.4595 61.1428 48.4062L62.8428 48.2362V47.7662C62.8428 47.3929 62.7595 47.1262 62.5928 46.9662C62.4328 46.7995 62.2161 46.7162 61.9428 46.7162C61.5161 46.7162 60.9628 46.7562 60.2828 46.8362L59.9728 46.8662L59.9428 46.3862C60.6761 46.2462 61.3161 46.1762 61.8628 46.1762C62.4161 46.1762 62.8161 46.3062 63.0628 46.5662C63.3095 46.8262 63.4328 47.2262 63.4328 47.7662ZM60.2928 49.8562C60.2928 50.5295 60.5695 50.8662 61.1228 50.8662C61.3628 50.8662 61.6261 50.8395 61.9128 50.7862C62.1995 50.7262 62.4261 50.6662 62.5928 50.6062L62.8428 50.5162V48.7062L61.2128 48.8762C60.8861 48.9029 60.6495 48.9962 60.5028 49.1562C60.3628 49.3162 60.2928 49.5495 60.2928 49.8562ZM68.143 46.2762H68.733V51.2762H68.143V50.9062C67.6297 51.2195 67.1164 51.3762 66.603 51.3762C65.923 51.3762 65.473 51.2029 65.253 50.8562C65.0397 50.5095 64.933 49.8529 64.933 48.8862V46.2762H65.523V48.8762C65.523 49.6495 65.593 50.1695 65.733 50.4362C65.8797 50.7029 66.193 50.8362 66.673 50.8362C66.9064 50.8362 67.1464 50.8029 67.393 50.7362C67.6397 50.6629 67.8264 50.5895 67.953 50.5162L68.143 50.4162V46.2762ZM70.8269 51.2762H70.2369V46.2762H70.8269V46.6462C71.3869 46.3329 71.9303 46.1762 72.4569 46.1762C73.1236 46.1762 73.5669 46.3529 73.7869 46.7062C74.0136 47.0595 74.1269 47.7062 74.1269 48.6462V51.2762H73.5269V48.6762C73.5269 47.9095 73.4536 47.3929 73.3069 47.1262C73.1603 46.8529 72.8469 46.7162 72.3669 46.7162C72.1336 46.7162 71.8869 46.7529 71.6269 46.8262C71.3736 46.8929 71.1769 46.9629 71.0369 47.0362L70.8269 47.1362V51.2762ZM79.309 44.0562V51.2762H78.709V50.9062C78.1823 51.2195 77.649 51.3762 77.109 51.3762C76.8623 51.3762 76.649 51.3462 76.469 51.2862C76.289 51.2329 76.1056 51.1229 75.919 50.9562C75.539 50.6162 75.349 49.9529 75.349 48.9662C75.349 47.9729 75.509 47.2595 75.829 46.8262C76.149 46.3929 76.689 46.1762 77.449 46.1762C77.7423 46.1762 78.1623 46.2195 78.709 46.3062V44.0562H79.309ZM76.359 50.5062C76.4856 50.6329 76.609 50.7195 76.729 50.7662C76.8556 50.8129 77.0156 50.8362 77.209 50.8362C77.409 50.8362 77.6356 50.7995 77.889 50.7262C78.149 50.6529 78.3523 50.5829 78.499 50.5162L78.709 50.4062V46.8262C78.1756 46.7462 77.7623 46.7062 77.469 46.7062C76.9023 46.7062 76.509 46.8795 76.289 47.2262C76.0756 47.5729 75.969 48.1095 75.969 48.8362C75.969 49.6895 76.099 50.2462 76.359 50.5062ZM80.8033 51.2762V46.2762H81.3933V46.9962C81.64 46.8229 81.94 46.6562 82.2933 46.4962C82.6533 46.3362 82.9833 46.2295 83.2833 46.1762V46.7762C82.9967 46.8362 82.6967 46.9295 82.3833 47.0562C82.07 47.1762 81.8267 47.2829 81.6533 47.3762L81.3933 47.5262V51.2762H80.8033ZM83.712 46.2762H84.322L85.652 50.7562H86.012L87.352 46.2762H87.962L85.802 53.5262H85.202L85.872 51.2762H85.182L83.712 46.2762Z" fill="black"/>
</svg>
