<svg width="30" height="40" viewBox="0 0 30 40" fill="none" xmlns="http://www.w3.org/2000/svg">
<path d="M26.7514 40H3.25045C1.91694 40 0.835999 38.919 0.835999 37.5855V2.41445C0.83592 1.08102 1.91694 0 3.25045 0H26.7515C28.085 0 29.1659 1.08102 29.1659 2.41445V37.5855C29.1659 38.919 28.0849 40 26.7514 40Z" fill="#F3EAE6"/>
<path d="M26.7505 0H26.4266C26.6322 0.355234 26.7505 0.767266 26.7505 1.20727V15.4279C26.7505 28.332 16.2896 38.7928 3.38553 38.7928H1.15881C1.57631 39.5142 2.35592 40 3.24952 40H26.7505C28.084 40 29.165 38.919 29.165 37.5855V2.41445C29.165 1.08102 28.084 0 26.7505 0V0Z" fill="#E1D3CE"/>
<path d="M26.7507 40L23.3594 38.7927L19.5146 40H3.24978C1.91626 40 0.835327 38.919 0.835327 37.5856V34.3948H29.1653V37.5856C29.1653 38.919 28.0842 40 26.7507 40Z" fill="#ACA6D6"/>
<path d="M29.1649 2.41484V37.5852C29.1649 38.9188 28.0844 40 26.7508 40H3.24922C2.35626 40 1.57657 39.5141 1.1586 38.793H3.38594C8.47969 38.793 13.1938 37.1625 17.0328 34.3945C22.9188 30.1523 26.7508 23.2375 26.7508 15.4281V1.20703C26.7508 0.767187 26.632 0.355469 26.4266 0H26.7508C28.0844 0 29.1649 1.08125 29.1649 2.41484Z" fill="#E1D3CE"/>
<path d="M29.1649 34.3945V37.5852C29.1649 38.9187 28.0844 40 26.7508 40L23.3594 38.793L19.5141 40H3.24922C2.35626 40 1.57657 39.5141 1.1586 38.793H3.38594C8.47969 38.793 13.1938 37.1625 17.0328 34.3945H29.1649Z" fill="#978ECB"/>
<path d="M29.165 7.24344H0.834991V2.41445C0.834991 1.08102 1.91601 0 3.24952 0H26.7505C28.0841 0 29.165 1.08102 29.165 2.41445V7.24344Z" fill="#ACA6D6"/>
<path d="M26.7505 0H26.4266C26.6322 0.355234 26.7505 0.767266 26.7505 1.20727V7.24352H29.1649V2.41445C29.165 1.08102 28.084 0 26.7505 0Z" fill="#978ECB"/>
<path d="M3.24952 0C1.91601 0 0.834991 1.08102 0.834991 2.41445V7.24344H10.8837V0L3.24952 0Z" fill="#978ECB"/>
<path d="M26.7505 40H19.5144V37.3727C19.5144 37.0615 19.7666 36.8093 20.0777 36.8093H26.187C26.4982 36.8093 26.7504 37.0616 26.7504 37.3727V40H26.7505Z" fill="#FAF7F7"/>
<path d="M18.1272 4.3461V2.89735C18.1272 2.63063 18.3434 2.41446 18.6101 2.41446H26.2676C26.5343 2.41446 26.7505 2.63063 26.7505 2.89735V4.3461C26.7505 4.61282 26.5343 4.82899 26.2676 4.82899H18.6101C18.3434 4.82899 18.1272 4.61274 18.1272 4.3461Z" fill="#FAF7F7"/>
<path d="M15.3566 4.47692C15.828 4.00552 15.828 3.24124 15.3566 2.76985C14.8852 2.29845 14.1209 2.29845 13.6495 2.76985C13.1781 3.24124 13.1781 4.00552 13.6495 4.47692C14.1209 4.94832 14.8852 4.94831 15.3566 4.47692Z" fill="#FAF7F7"/>
<path d="M8.4692 3.01812H3.24944C2.91608 3.01812 2.64584 2.74788 2.64584 2.41452C2.64584 2.08116 2.91608 1.81093 3.24944 1.81093H8.4692C8.80256 1.81093 9.0728 2.08116 9.0728 2.41452C9.0728 2.74788 8.80264 3.01812 8.4692 3.01812Z" fill="#FAF7F7"/>
<path d="M8.4692 5.43256H3.24944C2.91608 5.43256 2.64584 5.16233 2.64584 4.82897C2.64584 4.49561 2.91608 4.22537 3.24944 4.22537H8.4692C8.80256 4.22537 9.0728 4.49561 9.0728 4.82897C9.0728 5.16233 8.80264 5.43256 8.4692 5.43256Z" fill="#FAF7F7"/>
<path d="M15 29.585C19.8413 29.585 23.7659 25.6604 23.7659 20.8191C23.7659 15.9779 19.8413 12.0533 15 12.0533C10.1588 12.0533 6.23416 15.9779 6.23416 20.8191C6.23416 25.6604 10.1588 29.585 15 29.585Z" fill="#B3DAFE"/>
<path d="M15 27.1705C18.5078 27.1705 21.3514 24.3269 21.3514 20.8191C21.3514 17.3113 18.5078 14.4677 15 14.4677C11.4922 14.4677 8.64862 17.3113 8.64862 20.8191C8.64862 24.3269 11.4922 27.1705 15 27.1705Z" fill="#8AC9FE"/>
<path d="M13.2677 21.3443C13.1132 21.3443 12.9587 21.2854 12.8409 21.1675C12.6051 20.9318 12.6051 20.5496 12.8409 20.3138L15.0984 18.0562C15.3341 17.8205 15.7163 17.8205 15.952 18.0562C16.1877 18.292 16.1877 18.6742 15.952 18.9099L13.6945 21.1675C13.5766 21.2853 13.4221 21.3443 13.2677 21.3443Z" fill="#D8ECFE"/>
<path d="M14.4748 23.7588C14.3204 23.7588 14.1659 23.6998 14.0481 23.582C13.8123 23.3463 13.8123 22.9641 14.0481 22.7283L16.3056 20.4707C16.5413 20.235 16.9234 20.235 17.1591 20.4707C17.3949 20.7064 17.3949 21.0887 17.1591 21.3244L14.9016 23.582C14.7838 23.6998 14.6293 23.7588 14.4748 23.7588Z" fill="#D8ECFE"/>
</svg>
