<svg width="48" height="50" viewBox="0 0 48 50" fill="none" xmlns="http://www.w3.org/2000/svg">
<path d="M37.1948 14.8739L46.7057 24.1098C47.7179 25.0927 47.4523 26.7814 46.1873 27.4061L33.777 33.5355L35.9723 15.3066C36.0439 14.7121 36.7653 14.4567 37.1948 14.8739Z" fill="#978ECB"/>
<path d="M10.8052 14.8739L1.29434 24.1098C0.282229 25.0927 0.547756 26.7813 1.8127 27.406L14.223 33.5354L12.0278 15.3066C11.9562 14.7121 11.2348 14.4567 10.8052 14.8739Z" fill="#978ECB"/>
<path d="M24.1021 20.6002C27.5022 20.6002 30.2585 17.8439 30.2585 14.4438V11.9025L29.7457 12.1577L27.6947 13.1783C25.432 14.3043 22.7723 14.3043 20.5096 13.1783L17.9488 11.9041L17.9458 11.9025V14.4438C17.9458 17.8439 20.702 20.6002 24.1021 20.6002Z" fill="#978ECB"/>
<path d="M33.8069 14.4881L24.8089 7.93703V5.54397C26.1983 5.46457 27.3042 4.31077 27.3042 2.90403V2.71809C27.3042 1.21985 26.0835 0.000999451 24.583 0.000999451H24.4269C22.9264 0.000999451 21.7057 1.21985 21.7057 2.71809C21.7057 3.13625 22.0447 3.47532 22.4629 3.47532C22.8812 3.47532 23.2202 3.13625 23.2202 2.71809C23.2202 2.05491 23.7615 1.51545 24.4268 1.51545H24.5829C25.2483 1.51545 25.7896 2.05491 25.7896 2.71809V2.90403C25.7896 3.52698 25.281 4.03381 24.6559 4.03381C23.9051 4.03381 23.2943 4.64407 23.2943 5.39407V7.86809L15.1061 14.0308C14.7719 14.2823 14.7049 14.7571 14.9564 15.0912C15.2077 15.4253 15.6826 15.4925 16.0167 15.2408L24.0075 9.22688L32.9155 15.7124C33.0499 15.8104 33.2059 15.8575 33.3606 15.8575C33.5945 15.8575 33.8252 15.7495 33.9734 15.5459C34.2195 15.2078 34.145 14.7342 33.8069 14.4881Z" fill="#E19974"/>
<path d="M36.2644 16.3234L37.7789 31.4963V47.9806C37.7789 49.0962 36.8742 49.9999 35.7596 49.9999H12.2403C11.1257 49.9999 10.221 49.0962 10.221 47.9806V16.3376C10.221 15.5097 10.7268 14.7655 11.4962 14.4605L17.946 11.902V14.4434C17.946 17.8439 20.7024 20.6003 24.1019 20.6003C27.5025 20.6003 30.2589 17.8439 30.2589 14.4434V11.902L36.5208 14.4535C37.2811 14.7635 36.2644 15.5026 36.2644 16.3234Z" fill="#ACA6D6"/>
<path d="M36.5209 14.4536L34.3107 13.553C34.589 13.9029 34.75 14.3426 34.75 14.809V27.7436C34.75 39.1991 25.4636 48.4855 14.0081 48.4855H10.2873C10.5119 49.3562 11.3003 50.0001 12.2404 50.0001H35.7597C36.8749 50.0001 37.779 49.096 37.779 47.9807V16.3234C37.7789 15.5026 37.2811 14.7635 36.5209 14.4536Z" fill="#978ECB"/>
<path d="M24.288 30.6518L22.1717 31.5614C22.0161 31.6283 21.8977 31.7601 21.8476 31.9219L21.1668 34.1226C21.0079 34.6362 20.2953 34.674 20.083 34.1801L19.1732 32.0638C19.1063 31.9082 18.9746 31.7897 18.8128 31.7396L16.6121 31.0589C16.0984 30.9 16.0606 30.1874 16.5546 29.975L18.6709 29.0653C18.8265 28.9984 18.9449 28.8667 18.995 28.7049L19.6758 26.5042C19.8347 25.9905 20.5473 25.9527 20.7596 26.4467L21.6693 28.563C21.7362 28.7185 21.868 28.8371 22.0298 28.8871L24.2305 29.5679C24.7442 29.7268 24.782 30.4393 24.288 30.6518Z" fill="white"/>
<path d="M29.5791 41.1861L27.8826 41.9154C27.7579 41.969 27.6629 42.0746 27.6227 42.2043L27.077 43.9685C26.9497 44.3803 26.3784 44.4105 26.2082 44.0146L25.4789 42.3181C25.4253 42.1934 25.3197 42.0983 25.19 42.0582L23.4259 41.5125C23.014 41.3852 22.9838 40.8139 23.3798 40.6437L25.0763 39.9144C25.201 39.8607 25.296 39.7552 25.336 39.6254L25.8817 37.8612C26.0091 37.4494 26.5803 37.4191 26.7506 37.8151L27.4799 39.5116C27.5335 39.6363 27.639 39.7313 27.7688 39.7714L29.533 40.3171C29.9447 40.4446 29.9751 41.0159 29.5791 41.1861Z" fill="white"/>
</svg>
